<svg width="16" height="16" viewBox="0 0 16 16" fill="none" xmlns="http://www.w3.org/2000/svg">
<g clip-path="url(#clip0_7_16942)">
<rect width="16" height="16" rx="8" fill="white"/>
<rect x="-2.66797" width="21.3333" height="16" fill="#203349"/>
<path d="M2.91328 9.04533C2.78528 9.04533 2.6715 9.01778 2.57195 8.96267C2.47417 8.90578 2.39684 8.82311 2.33995 8.71467C2.28306 8.60622 2.25461 8.472 2.25461 8.312C2.25461 8.16444 2.27773 8.024 2.32395 7.89067C2.37017 7.75556 2.43595 7.63556 2.52128 7.53067C2.60839 7.42578 2.7115 7.34311 2.83061 7.28267C2.9515 7.22222 3.08573 7.192 3.23328 7.192C3.36661 7.192 3.48217 7.22222 3.57995 7.28267C3.6795 7.34133 3.75684 7.42578 3.81195 7.536C3.86706 7.64444 3.89461 7.77333 3.89461 7.92267C3.89461 8.07378 3.8715 8.21689 3.82528 8.352C3.77906 8.48711 3.71239 8.60711 3.62528 8.712C3.53995 8.81511 3.43684 8.89689 3.31595 8.95733C3.19684 9.016 3.06261 9.04533 2.91328 9.04533ZM2.93995 8.96533C3.02173 8.96533 3.09817 8.93689 3.16928 8.88C3.24217 8.82133 3.30617 8.74133 3.36128 8.64C3.41639 8.53867 3.45906 8.42222 3.48928 8.29067C3.52128 8.15733 3.53728 8.01511 3.53728 7.864C3.53728 7.67378 3.51239 7.528 3.46261 7.42667C3.41284 7.32356 3.33017 7.272 3.21461 7.272C3.13284 7.272 3.0555 7.30044 2.98261 7.35733C2.90973 7.41422 2.84484 7.49244 2.78795 7.592C2.73284 7.69156 2.68928 7.808 2.65728 7.94133C2.62528 8.07289 2.60928 8.21422 2.60928 8.36533C2.60928 8.55733 2.63595 8.70578 2.68928 8.81067C2.74261 8.91378 2.82617 8.96533 2.93995 8.96533ZM4.02501 9.02133L3.99834 8.99733L4.20101 8.02933C4.21701 7.95822 4.19034 7.90844 4.12101 7.88L4.08101 7.864L4.08634 7.81867L4.55834 7.67733L4.58768 7.704L4.52901 8.00533C4.62145 7.90756 4.71568 7.82933 4.81168 7.77067C4.90768 7.71022 4.99745 7.68 5.08101 7.68C5.1379 7.68 5.18412 7.69778 5.21968 7.73333C5.25701 7.76711 5.27568 7.81956 5.27568 7.89067C5.27568 7.92978 5.27212 7.96978 5.26501 8.01067C5.2579 8.04978 5.24901 8.09067 5.23834 8.13333L5.10234 8.68C5.09523 8.70844 5.08901 8.73333 5.08368 8.75467C5.08012 8.77422 5.07834 8.79111 5.07834 8.80533C5.07834 8.84267 5.09345 8.86133 5.12368 8.86133C5.1699 8.86133 5.22857 8.824 5.29968 8.74933L5.33701 8.78667C5.29257 8.85244 5.23479 8.91111 5.16368 8.96267C5.09257 9.01244 5.01345 9.03733 4.92634 9.03733C4.87123 9.03733 4.82768 9.024 4.79568 8.99733C4.76368 8.97067 4.74768 8.93422 4.74768 8.888C4.74768 8.85067 4.75212 8.81333 4.76101 8.776C4.7699 8.73689 4.78057 8.69511 4.79301 8.65067L4.89701 8.22933C4.91123 8.176 4.92279 8.128 4.93168 8.08533C4.94057 8.04267 4.94501 8.00444 4.94501 7.97067C4.94501 7.93511 4.93701 7.91111 4.92101 7.89867C4.90679 7.88444 4.88723 7.87733 4.86234 7.87733C4.81968 7.87733 4.76812 7.896 4.70768 7.93333C4.64901 7.96889 4.58234 8.02578 4.50768 8.104L4.43568 8.432C4.41612 8.52622 4.39745 8.62044 4.37968 8.71467C4.3619 8.80889 4.34412 8.904 4.32634 9L4.02501 9.02133ZM6.52789 9.03733C6.39811 9.03733 6.29144 8.99378 6.20789 8.90667C6.12611 8.81956 6.08522 8.696 6.08522 8.536C6.08522 8.42222 6.10477 8.31378 6.14389 8.21067C6.18477 8.10756 6.23989 8.01689 6.30922 7.93867C6.37855 7.85867 6.45855 7.79556 6.54922 7.74933C6.63989 7.70311 6.73589 7.68 6.83722 7.68C6.89944 7.68 6.95633 7.68978 7.00789 7.70933C7.06122 7.72889 7.10389 7.75556 7.13589 7.78933C7.16789 7.82311 7.183 7.86311 7.18122 7.90933C7.17944 7.95556 7.16433 7.992 7.13589 8.01867C7.10744 8.04533 7.07189 8.05867 7.02922 8.05867C6.98122 8.05867 6.94211 8.04533 6.91189 8.01867C6.88344 7.992 6.85944 7.95911 6.83989 7.92L6.82122 7.87733C6.79811 7.82578 6.77589 7.79644 6.75455 7.78933C6.73322 7.78222 6.70211 7.79556 6.66122 7.82933C6.615 7.87022 6.57055 7.92444 6.52789 7.992C6.487 8.05778 6.45411 8.13156 6.42922 8.21333C6.40433 8.29511 6.39189 8.37956 6.39189 8.46667C6.39189 8.59289 6.42033 8.68622 6.47722 8.74667C6.53411 8.80711 6.60966 8.83733 6.70389 8.83733C6.76789 8.83733 6.83011 8.81778 6.89055 8.77867C6.951 8.73778 7.007 8.68356 7.05855 8.616L7.10122 8.65067C7.06566 8.71822 7.01855 8.78222 6.95989 8.84267C6.90122 8.90133 6.83544 8.94844 6.76255 8.984C6.68966 9.01956 6.61144 9.03733 6.52789 9.03733ZM7.5098 9.03733C7.45114 9.03733 7.40047 9.02044 7.3578 8.98667C7.31514 8.95111 7.2938 8.89689 7.2938 8.824C7.2938 8.78311 7.29825 8.73778 7.30714 8.688C7.31602 8.63822 7.3258 8.58933 7.33647 8.54133L7.45114 8.032C7.46714 7.95911 7.44136 7.90933 7.3738 7.88267L7.32847 7.864L7.3338 7.816L7.8138 7.67733L7.8458 7.704L7.6618 8.504C7.65114 8.54844 7.64225 8.58844 7.63514 8.624C7.62802 8.65956 7.62447 8.69244 7.62447 8.72267C7.62447 8.76178 7.63336 8.79022 7.65114 8.808C7.66891 8.824 7.69202 8.832 7.72047 8.832C7.76314 8.832 7.80936 8.81778 7.85914 8.78933C7.91069 8.75911 7.97202 8.712 8.04314 8.648L8.0458 8.63467L8.13647 8.20533C8.15069 8.13244 8.16491 8.06044 8.17914 7.98933C8.19336 7.91644 8.20669 7.84356 8.21914 7.77067L8.53114 7.67733L8.5658 7.704L8.3578 8.656C8.35247 8.68622 8.34714 8.71378 8.3418 8.73867C8.33825 8.76356 8.33647 8.784 8.33647 8.8C8.33647 8.81778 8.3418 8.832 8.35247 8.84267C8.36314 8.85156 8.37469 8.856 8.38714 8.856C8.41202 8.856 8.43691 8.84711 8.4618 8.82933C8.48847 8.80978 8.52136 8.78133 8.56047 8.744L8.60047 8.784C8.55602 8.84622 8.50002 8.904 8.43247 8.95733C8.36669 9.01067 8.29114 9.03733 8.2058 9.03733C8.15425 9.03733 8.1098 9.01956 8.07247 8.984C8.03691 8.94844 8.01914 8.89689 8.01914 8.82933C8.01914 8.80267 8.02091 8.77422 8.02447 8.744C7.93202 8.83644 7.84225 8.90844 7.75514 8.96C7.6698 9.01156 7.58802 9.03733 7.5098 9.03733ZM8.88089 9.03733C8.824 9.03733 8.77777 9.02311 8.74222 8.99467C8.70844 8.96444 8.69155 8.92178 8.69155 8.86667C8.69155 8.83644 8.69511 8.8 8.70222 8.75733C8.71111 8.71289 8.72177 8.65689 8.73422 8.58933L8.89155 7.824C8.90577 7.76 8.91733 7.70222 8.92622 7.65067C8.93511 7.59911 8.94577 7.54044 8.95822 7.47467C8.96889 7.4 8.93866 7.352 8.86755 7.33067L8.82755 7.31733L8.83555 7.272L9.33155 7.128L9.35555 7.14933L9.03289 8.67733C9.02577 8.70578 9.02044 8.73067 9.01689 8.752C9.01511 8.77333 9.01422 8.79111 9.01422 8.80533C9.01422 8.84444 9.03111 8.864 9.06489 8.864C9.10577 8.864 9.16533 8.82578 9.24355 8.74933L9.28089 8.78667C9.23644 8.84889 9.18133 8.90667 9.11555 8.96C9.04977 9.01156 8.97155 9.03733 8.88089 9.03733ZM9.66401 9.03733C9.6089 9.03733 9.56357 9.024 9.52801 8.99733C9.49423 8.96889 9.47734 8.92711 9.47734 8.872C9.47734 8.80444 9.48801 8.72267 9.50934 8.62667L9.68801 7.8H9.46134L9.47201 7.744L9.57868 7.73333C9.66934 7.72089 9.74401 7.67822 9.80268 7.60533L10.0107 7.35467H10.0933L10.0187 7.72H10.3147L10.2987 7.80533L10 7.8L9.82401 8.65333C9.8169 8.68533 9.81157 8.71378 9.80801 8.73867C9.80445 8.76178 9.80268 8.78133 9.80268 8.79733C9.80268 8.81511 9.80801 8.82933 9.81868 8.84C9.82934 8.85067 9.84179 8.856 9.85601 8.856C9.89334 8.856 9.95023 8.81778 10.0267 8.74133L10.0693 8.776C10.0249 8.84178 9.96801 8.90222 9.89868 8.95733C9.83112 9.01067 9.7529 9.03733 9.66401 9.03733ZM10.5463 9.03733C10.4876 9.03733 10.4369 9.02044 10.3943 8.98667C10.3516 8.95111 10.3303 8.89689 10.3303 8.824C10.3303 8.78311 10.3347 8.73778 10.3436 8.688C10.3525 8.63822 10.3623 8.58933 10.3729 8.54133L10.4876 8.032C10.5036 7.95911 10.4778 7.90933 10.4103 7.88267L10.3649 7.864L10.3703 7.816L10.8503 7.67733L10.8823 7.704L10.6983 8.504C10.6876 8.54844 10.6787 8.58844 10.6716 8.624C10.6645 8.65956 10.6609 8.69244 10.6609 8.72267C10.6609 8.76178 10.6698 8.79022 10.6876 8.808C10.7054 8.824 10.7285 8.832 10.7569 8.832C10.7996 8.832 10.8458 8.81778 10.8956 8.78933C10.9471 8.75911 11.0085 8.712 11.0796 8.648L11.0823 8.63467L11.1729 8.20533C11.1871 8.13244 11.2014 8.06044 11.2156 7.98933C11.2298 7.91644 11.2431 7.84356 11.2556 7.77067L11.5676 7.67733L11.6023 7.704L11.3943 8.656C11.3889 8.68622 11.3836 8.71378 11.3783 8.73867C11.3747 8.76356 11.3729 8.784 11.3729 8.8C11.3729 8.81778 11.3783 8.832 11.3889 8.84267C11.3996 8.85156 11.4111 8.856 11.4236 8.856C11.4485 8.856 11.4734 8.84711 11.4983 8.82933C11.5249 8.80978 11.5578 8.78133 11.5969 8.744L11.6369 8.784C11.5925 8.84622 11.5365 8.904 11.4689 8.95733C11.4031 9.01067 11.3276 9.03733 11.2423 9.03733C11.1907 9.03733 11.1463 9.01956 11.1089 8.984C11.0734 8.94844 11.0556 8.89689 11.0556 8.82933C11.0556 8.80267 11.0574 8.77422 11.0609 8.744C10.9685 8.83644 10.8787 8.90844 10.7916 8.96C10.7063 9.01156 10.6245 9.03733 10.5463 9.03733ZM11.7672 9.02133L11.7405 8.99733L11.9405 8.032C11.9494 7.98933 11.9468 7.95644 11.9325 7.93333C11.9183 7.90844 11.8934 7.88978 11.8579 7.87733L11.8205 7.864L11.8285 7.81867L12.2712 7.67733L12.3032 7.70667L12.2312 8.12533C12.2703 8.04356 12.3148 7.96889 12.3645 7.90133C12.4143 7.83378 12.4659 7.78044 12.5192 7.74133C12.5743 7.70044 12.6285 7.68 12.6819 7.68C12.7352 7.68 12.7779 7.69422 12.8099 7.72267C12.8436 7.75111 12.8605 7.78844 12.8605 7.83467C12.8605 7.88444 12.8463 7.92444 12.8179 7.95467C12.7894 7.98489 12.7512 8 12.7032 8C12.6285 8 12.5592 7.96267 12.4952 7.888C12.4312 7.93956 12.3761 8.00356 12.3299 8.08C12.2836 8.15467 12.2401 8.23556 12.1992 8.32267L12.1779 8.432C12.1601 8.52622 12.1414 8.62044 12.1219 8.71467C12.1041 8.80889 12.0863 8.904 12.0685 9L11.7672 9.02133ZM13.2675 9.03733C13.136 9.03733 13.0284 8.99467 12.9449 8.90933C12.8631 8.824 12.8222 8.70044 12.8222 8.53867C12.8222 8.42667 12.8418 8.31911 12.8809 8.216C12.92 8.11289 12.9733 8.02133 13.0409 7.94133C13.1102 7.85956 13.1911 7.79556 13.2835 7.74933C13.376 7.70311 13.4755 7.68 13.5822 7.68C13.6924 7.68 13.776 7.70489 13.8329 7.75467C13.8915 7.80444 13.9209 7.87111 13.9209 7.95467C13.9209 8.056 13.8533 8.15644 13.7182 8.256C13.5849 8.35378 13.3911 8.43022 13.1369 8.48533C13.1422 8.60089 13.1698 8.68533 13.2195 8.73867C13.2693 8.792 13.3378 8.81867 13.4249 8.81867C13.5031 8.81867 13.5733 8.79822 13.6355 8.75733C13.6978 8.71644 13.7502 8.66844 13.7929 8.61333L13.8329 8.64267C13.7973 8.71022 13.7511 8.77422 13.6942 8.83467C13.6391 8.89511 13.576 8.944 13.5049 8.98133C13.4338 9.01867 13.3546 9.03733 13.2675 9.03733ZM13.5555 7.77067C13.5146 7.77067 13.4711 7.78844 13.4249 7.824C13.3786 7.85778 13.3342 7.90489 13.2915 7.96533C13.2506 8.024 13.216 8.09244 13.1875 8.17067C13.1591 8.24711 13.1422 8.32889 13.1369 8.416C13.336 8.35733 13.4755 8.28444 13.5555 8.19733C13.6373 8.11022 13.6782 8.01778 13.6782 7.92C13.6782 7.86844 13.6666 7.83111 13.6435 7.808C13.6204 7.78311 13.5911 7.77067 13.5555 7.77067Z" fill="#FDFAF3"/>
</g>
<defs>
<clipPath id="clip0_7_16942">
<rect width="16" height="16" rx="8" fill="white"/>
</clipPath>
</defs>
</svg>
