<svg width="52" height="20" viewBox="0 0 52 20" fill="none" xmlns="http://www.w3.org/2000/svg">
<rect width="52" height="20" rx="10" fill="#5E7FE2"/>
<path d="M18.6816 6.00781H11.873V4.82422H18.6816V6.00781ZM19.373 5.82617C19.373 6.31445 19.3672 6.7168 19.3555 7.0332C19.3477 7.34961 19.3203 7.70508 19.2734 8.09961C19.2305 8.49023 19.1641 8.9082 19.0742 9.35352L17.5977 9.23047C17.6875 8.80859 17.7539 8.41016 17.7969 8.03516C17.8398 7.65625 17.8652 7.31445 17.873 7.00977C17.8848 6.70117 17.8906 6.30664 17.8906 5.82617V4.82422H19.373V5.82617ZM11.7617 8.17578L11.5801 6.94531L18.3359 6.79883V7.89453L11.7617 8.17578ZM20.4688 11.0645H10.7832V9.88672H20.4688V11.0645ZM15.9043 10.6543H14.3984V8.55078H15.9043V10.6543ZM19.5547 14.9199H11.9141V13.7188H19.5547V14.9199ZM13.4082 14.2695H11.9141V11.7324H13.4082V14.2695ZM29.3984 8.97266H26.5566V7.77148H29.3984V8.97266ZM24.8633 6.82227C24.8633 7.73633 24.7559 8.59375 24.541 9.39453C24.3262 10.1953 23.998 10.9043 23.5566 11.5215C23.1152 12.1387 22.5684 12.6113 21.916 12.9395L20.9785 11.7148C21.5645 11.4492 22.0566 11.0625 22.4551 10.5547C22.8574 10.0469 23.1562 9.47266 23.3516 8.83203C23.5508 8.19141 23.6504 7.52148 23.6504 6.82227V5.22852H24.8633V6.82227ZM25.168 6.82227C25.168 7.52148 25.2617 8.18164 25.4492 8.80273C25.6367 9.41992 25.9238 9.96875 26.3105 10.4492C26.6973 10.9297 27.1777 11.2969 27.752 11.5508L26.8379 12.7461C26.1973 12.4297 25.6621 11.9785 25.2324 11.3926C24.8066 10.8027 24.4883 10.1211 24.2773 9.34766C24.0703 8.57422 23.9668 7.73242 23.9668 6.82227V5.22852H25.168V6.82227ZM30.1309 15.1074H28.6484V4.40234H30.1309V15.1074ZM40.1973 11.1055H32.6504V9.92773H40.1973V11.1055ZM41.2578 13.8359H31.5078V12.623H41.2578V13.8359ZM40.1152 6.41211H34.1738V10.2441H32.6504V5.19336H40.1152V6.41211ZM39.8633 8.70312H33.7285V7.53711H39.8633V8.70312Z" fill="white"/>
</svg>
