<svg width="59" height="20" viewBox="0 0 59 20" fill="none" xmlns="http://www.w3.org/2000/svg">
<rect width="59" height="20" rx="10" fill="#6D8294"/>
<path d="M23.0449 8.39258H20.5137V7.17969H23.0449V8.39258ZM23.748 12.2129H22.2598V4.42578H23.748V12.2129ZM24.0059 14.8965H16.6699V13.6895H24.0059V14.8965ZM18.1699 14.3926H16.6699V11.5273H18.1699V14.3926ZM18.4805 6.49414C18.4805 7.18164 18.3691 7.82617 18.1465 8.42773C17.9277 9.0293 17.5918 9.55664 17.1387 10.0098C16.6895 10.459 16.1348 10.7949 15.4746 11.0176L14.7012 9.81055C15.2637 9.63086 15.7363 9.36914 16.1191 9.02539C16.5059 8.67773 16.793 8.28906 16.9805 7.85938C17.168 7.42578 17.2617 6.9707 17.2617 6.49414V5.80273H18.4805V6.49414ZM18.7852 6.50586C18.7852 6.93945 18.875 7.35938 19.0547 7.76562C19.2344 8.16797 19.5059 8.5332 19.8691 8.86133C20.2363 9.18945 20.6934 9.44141 21.2402 9.61719L20.502 10.8008C19.8574 10.5898 19.3145 10.2676 18.873 9.83398C18.4355 9.40039 18.1094 8.89844 17.8945 8.32812C17.6797 7.75781 17.5723 7.15039 17.5723 6.50586V5.80273H18.7852V6.50586ZM20.9121 6.3418H15.123V5.14062H20.9121V6.3418ZM28.998 6.82227C28.998 7.75977 28.8828 8.63281 28.6523 9.44141C28.4258 10.25 28.082 10.9629 27.6211 11.5801C27.1602 12.1934 26.5859 12.6582 25.8984 12.9746L24.9902 11.7266C25.5957 11.4688 26.1055 11.0898 26.5195 10.5898C26.9375 10.0898 27.25 9.51562 27.457 8.86719C27.6641 8.21875 27.7676 7.53711 27.7676 6.82227V5.22852H28.998V6.82227ZM29.2852 6.82227C29.2852 7.50195 29.3848 8.15039 29.584 8.76758C29.7871 9.38086 30.0918 9.92969 30.498 10.4141C30.9043 10.8984 31.3984 11.2637 31.9805 11.5098L31.1016 12.7109C30.4414 12.4102 29.8809 11.9648 29.4199 11.375C28.9629 10.7852 28.6211 10.1016 28.3945 9.32422C28.168 8.54688 28.0547 7.71289 28.0547 6.82227V5.22852H29.2852V6.82227ZM34.0605 15.1074H32.543V4.40234H34.0605V15.1074ZM39.75 12.6289H38.2617V10.8887H39.75V12.6289ZM44.4609 15.0781H42.9785V4.40234H44.4609V15.0781ZM36.1699 12.0664C37.4395 12.0586 38.5664 12.0352 39.5508 11.9961C40.5391 11.9531 41.4863 11.873 42.3926 11.7559L42.4863 12.8633C41.4629 13.043 40.4062 13.1602 39.3164 13.2148C38.2305 13.2656 37.041 13.291 35.748 13.291L35.5488 12.0664H36.1699ZM42.2402 6.77539H35.7598V5.60352H42.2402V6.77539ZM38.9941 7.19727C39.5176 7.19727 39.9824 7.28125 40.3887 7.44922C40.7949 7.61719 41.1113 7.85352 41.3379 8.1582C41.5645 8.45898 41.6777 8.80664 41.6777 9.20117C41.6777 9.5918 41.5645 9.9375 41.3379 10.2383C41.1113 10.5391 40.7949 10.7754 40.3887 10.9473C39.9824 11.1152 39.5176 11.1992 38.9941 11.1992C38.4824 11.1992 38.0234 11.1152 37.6172 10.9473C37.2148 10.7793 36.9004 10.5449 36.6738 10.2441C36.4512 9.93945 36.3398 9.5918 36.3398 9.20117C36.3398 8.80664 36.4512 8.45898 36.6738 8.1582C36.9004 7.85352 37.2148 7.61719 37.6172 7.44922C38.0234 7.28125 38.4824 7.19727 38.9941 7.19727ZM38.9941 8.32812C38.7559 8.32812 38.543 8.36328 38.3555 8.43359C38.168 8.5 38.0215 8.59961 37.916 8.73242C37.8105 8.86133 37.7578 9.01758 37.7578 9.20117C37.7578 9.38086 37.8105 9.53516 37.916 9.66406C38.0215 9.79297 38.168 9.89258 38.3555 9.96289C38.543 10.0293 38.7559 10.0625 38.9941 10.0625C39.2441 10.0625 39.4648 10.0293 39.6562 9.96289C39.8477 9.89648 39.9941 9.79883 40.0957 9.66992C40.1973 9.53711 40.248 9.38086 40.248 9.20117C40.248 9.01758 40.1973 8.86133 40.0957 8.73242C39.9941 8.59961 39.8477 8.5 39.6562 8.43359C39.4648 8.36328 39.2441 8.32812 38.9941 8.32812ZM39.7617 6.27148H38.2617V4.45508H39.7617V6.27148Z" fill="white"/>
</svg>
