<svg width="24" height="24" viewBox="0 0 24 24" fill="none" xmlns="http://www.w3.org/2000/svg">
<path d="M10.7329 5.0755C13.0623 4.79791 15.4185 5.29032 17.4418 6.47755C19.465 7.66478 21.0441 9.48158 21.9379 11.6505C22.0213 11.875 22.0213 12.122 21.9379 12.3465C21.5704 13.2375 21.0847 14.075 20.4939 14.8365" stroke="black" stroke-width="2" stroke-linecap="round" stroke-linejoin="round"/>
<path d="M14.0841 14.158C13.5183 14.7045 12.7605 15.0069 11.9739 15C11.1873 14.9932 10.4349 14.6777 9.87868 14.1215C9.32245 13.5652 9.00695 12.8128 9.00011 12.0262C8.99328 11.2396 9.29566 10.4818 9.84214 9.91602" stroke="black" stroke-width="2" stroke-linecap="round" stroke-linejoin="round"/>
<path d="M17.479 17.4998C16.1525 18.2855 14.6725 18.7768 13.1394 18.9402C11.6063 19.1035 10.056 18.9352 8.59365 18.4466C7.13133 17.9581 5.79121 17.1607 4.66423 16.1085C3.53725 15.0564 2.64977 13.7741 2.06202 12.3488C1.97868 12.1242 1.97868 11.8773 2.06202 11.6528C2.94865 9.50262 4.50869 7.69801 6.50802 6.50977" stroke="black" stroke-width="2" stroke-linecap="round" stroke-linejoin="round"/>
<path d="M4 4L20 20" stroke="black" stroke-width="2" stroke-linecap="round" stroke-linejoin="round"/>
</svg>
