<svg width="24" height="24" viewBox="0 0 24 24" fill="none" xmlns="http://www.w3.org/2000/svg">
<path d="M2.06202 12.3474C1.97868 12.1229 1.97868 11.8759 2.06202 11.6514C2.87372 9.68324 4.25153 8.00042 6.02079 6.81628C7.79004 5.63214 9.87106 5 12 5C14.129 5 16.21 5.63214 17.9792 6.81628C19.7485 8.00042 21.1263 9.68324 21.938 11.6514C22.0214 11.8759 22.0214 12.1229 21.938 12.3474C21.1263 14.3155 19.7485 15.9983 17.9792 17.1825C16.21 18.3666 14.129 18.9988 12 18.9988C9.87106 18.9988 7.79004 18.3666 6.02079 17.1825C4.25153 15.9983 2.87372 14.3155 2.06202 12.3474Z" stroke="black" stroke-width="2" stroke-linecap="round" stroke-linejoin="round"/>
<path d="M12 15C13.6569 15 15 13.6569 15 12C15 10.3431 13.6569 9 12 9C10.3431 9 9 10.3431 9 12C9 13.6569 10.3431 15 12 15Z" stroke="black" stroke-width="2" stroke-linecap="round" stroke-linejoin="round"/>
</svg>
