<svg width="62" height="20" viewBox="0 0 62 20" fill="none" xmlns="http://www.w3.org/2000/svg">
<rect width="62" height="20" rx="10" fill="#4DBD79" fill-opacity="0.8"/>
<path d="M19.0928 15.0781H17.6631V4.40234H19.0928V15.0781ZM15.9404 9.62891H14.4873V8.29297H15.9404V9.62891ZM16.9424 14.5684H15.5303V4.61914H16.9424V14.5684ZM14.7334 6.82227H9.85254V5.62109H14.7334V6.82227ZM9.65918 11.416C10.6123 11.416 11.5459 11.4004 12.46 11.3691C13.3779 11.334 14.1963 11.2676 14.915 11.1699L15.0146 12.2363C14.2764 12.3965 13.458 12.5039 12.5596 12.5586C11.665 12.6094 10.7529 12.6348 9.82324 12.6348L9.65918 11.416ZM11.874 11.7559H10.5381V6.38281H11.874V11.7559ZM14.0596 11.7559H12.6943V6.38281H14.0596V11.7559ZM25.4736 5.81445C25.4736 6.58789 25.292 7.3125 24.9287 7.98828C24.5654 8.66406 24.0479 9.24219 23.376 9.72266C22.708 10.1992 21.9248 10.5273 21.0264 10.707L20.3877 9.46484C21.1533 9.32031 21.8213 9.06055 22.3916 8.68555C22.9658 8.31055 23.4033 7.87109 23.7041 7.36719C24.0088 6.86328 24.1611 6.3457 24.1611 5.81445V5.05273H25.4736V5.81445ZM25.749 5.81445C25.749 6.34961 25.8994 6.87109 26.2002 7.37891C26.5049 7.88672 26.9443 8.32812 27.5186 8.70312C28.0967 9.07422 28.7725 9.32812 29.5459 9.46484L28.8896 10.707C27.999 10.5273 27.2178 10.2012 26.5459 9.72852C25.8779 9.25586 25.3643 8.68164 25.0049 8.00586C24.6455 7.33008 24.4658 6.59961 24.4658 5.81445V5.05273H25.749V5.81445ZM29.8975 13.7715H20.1475V12.5469H29.8975V13.7715ZM32.0186 11.4629C33.0459 11.4629 33.9365 11.4414 34.6904 11.3984C35.4443 11.3516 36.2178 11.2695 37.0107 11.1523L37.1514 12.3535C36.3779 12.4668 35.6025 12.5449 34.8252 12.5879C34.0479 12.627 33.1123 12.6504 32.0186 12.6582H31.0928V11.4629H32.0186ZM36.5186 6.51172H32.5811V11.8379H31.0928V5.29297H36.5186V6.51172ZM36.0791 9.44727H32.2412V8.26953H36.0791V9.44727ZM39.4775 15.0781H37.96V4.40234H39.4775V15.0781ZM48.8408 7.77734H46.0518V6.56445H48.8408V7.77734ZM49.8662 9.86328H48.3838V4.40234H49.8662V9.86328ZM49.8662 13.127H44.2881V14.4688H42.7822V12.0488H48.3838V11.4336H42.7705V10.2617H49.8662V13.127ZM50.1826 14.9609H42.7822V13.7832H50.1826V14.9609ZM42.8408 6.0957H44.9385V4.86523H46.4209V9.57617H41.335V4.86523H42.8408V6.0957ZM44.9385 8.39844V7.24414H42.8408V8.39844H44.9385Z" fill="white"/>
</svg>
