<svg width="24" height="24" viewBox="0 0 24 24" fill="none" xmlns="http://www.w3.org/2000/svg">
<rect x="0.5" y="0.5" width="23" height="23" rx="11.5" fill="white"/>
<rect x="0.5" y="0.5" width="23" height="23" rx="11.5" stroke="#F4F5F6"/>
<g clip-path="url(#clip0_322_9608)">
<path fill-rule="evenodd" clip-rule="evenodd" d="M8.01211 12.0008C8.01211 11.5563 8.08595 11.13 8.21773 10.7303L5.91099 8.96875C5.46142 9.88155 5.20813 10.9101 5.20813 12.0008C5.20813 13.0907 5.46111 14.1186 5.91006 15.0308L8.21555 13.2658C8.08501 12.8679 8.01211 12.4432 8.01211 12.0008Z" fill="#FBBC05"/>
<path fill-rule="evenodd" clip-rule="evenodd" d="M12.0623 7.95625C13.0281 7.95625 13.9005 8.29847 14.5859 8.85847L16.5798 6.86736C15.3648 5.80958 13.807 5.15625 12.0623 5.15625C9.35367 5.15625 7.02575 6.70527 5.91101 8.96861L8.21775 10.7301C8.74926 9.11669 10.2643 7.95625 12.0623 7.95625Z" fill="#EB4335"/>
<path fill-rule="evenodd" clip-rule="evenodd" d="M12.0623 16.0454C10.2643 16.0454 8.74926 14.8849 8.21775 13.2715L5.91101 15.0327C7.02575 17.2963 9.35367 18.8454 12.0623 18.8454C13.7341 18.8454 15.3302 18.2518 16.5281 17.1395L14.3385 15.4468C13.7207 15.836 12.9428 16.0454 12.0623 16.0454Z" fill="#34A853"/>
<path fill-rule="evenodd" clip-rule="evenodd" d="M18.6049 12.0003C18.6049 11.5959 18.5426 11.1603 18.4492 10.7559H12.0623V13.4003H15.7386C15.5548 14.3019 15.0545 14.9951 14.3385 15.4462L16.5281 17.1389C17.7865 15.971 18.6049 14.2313 18.6049 12.0003Z" fill="#4285F4"/>
</g>
<defs>
<clipPath id="clip0_322_9608">
<rect width="14" height="14" fill="white" transform="translate(5 5)"/>
</clipPath>
</defs>
</svg>
