<svg width="80" height="80" viewBox="0 0 80 80" fill="none" xmlns="http://www.w3.org/2000/svg">
<path d="M53.3333 16.666H73.3333" stroke="#203349" stroke-width="2" stroke-linecap="round" stroke-linejoin="round"/>
<path d="M63.3333 6.66602V26.666" stroke="#203349" stroke-width="2" stroke-linecap="round" stroke-linejoin="round"/>
<path d="M70 38.3333V63.3333C70 65.1014 69.2976 66.7971 68.0474 68.0474C66.7971 69.2976 65.1014 70 63.3333 70H16.6667C14.8986 70 13.2029 69.2976 11.9526 68.0474C10.7024 66.7971 10 65.1014 10 63.3333V16.6667C10 14.8986 10.7024 13.2029 11.9526 11.9526C13.2029 10.7024 14.8986 10 16.6667 10H41.6667" stroke="#203349" stroke-width="2" stroke-linecap="round" stroke-linejoin="round"/>
<path d="M70 50.0003L59.7133 39.7136C58.4631 38.4638 56.7678 37.7617 55 37.7617C53.2322 37.7617 51.5369 38.4638 50.2867 39.7136L20 70.0003" stroke="#203349" stroke-width="2" stroke-linecap="round" stroke-linejoin="round"/>
<path d="M29.9999 36.6673C33.6818 36.6673 36.6666 33.6825 36.6666 30.0007C36.6666 26.3188 33.6818 23.334 29.9999 23.334C26.318 23.334 23.3333 26.3188 23.3333 30.0007C23.3333 33.6825 26.318 36.6673 29.9999 36.6673Z" stroke="#203349" stroke-width="2" stroke-linecap="round" stroke-linejoin="round"/>
</svg>
