<svg width="25" height="24" viewBox="0 0 25 24" fill="none" xmlns="http://www.w3.org/2000/svg">
<rect x="0.5" width="24" height="24" rx="12" fill="#FFE812"/>
<g clip-path="url(#clip0_322_9622)">
<path d="M21.5 19.5938C21.5 20.3704 20.8704 21 20.0938 21H4.90625C4.12958 21 3.5 20.3704 3.5 19.5938V4.40625C3.5 3.62958 4.12958 3 4.90625 3H20.0938C20.8704 3 21.5 3.62958 21.5 4.40625V19.5938Z" fill="#FFE812"/>
<path d="M12.5 5.53125C8.46139 5.53125 5.1875 8.11263 5.1875 11.2969C5.1875 13.3556 6.5562 15.162 8.61509 16.182C8.50309 16.5683 7.8953 18.6671 7.87112 18.832C7.87112 18.832 7.85656 18.9559 7.93679 19.0031C8.01702 19.0504 8.11137 19.0137 8.11137 19.0137C8.34144 18.9815 10.7792 17.2691 11.2012 16.9718C11.6227 17.0315 12.0567 17.0625 12.5 17.0625C16.5386 17.0625 19.8125 14.4812 19.8125 11.2969C19.8125 8.11263 16.5386 5.53125 12.5 5.53125Z" fill="black"/>
</g>
<defs>
<clipPath id="clip0_322_9622">
<rect width="18" height="18" fill="white" transform="translate(3.5 3)"/>
</clipPath>
</defs>
</svg>
