<svg width="55" height="20" viewBox="0 0 55 20" fill="none" xmlns="http://www.w3.org/2000/svg">
<rect width="55" height="20" rx="10" fill="#A370D8"/>
<path d="M15.7324 15.1133H14.2324V10.6836H15.7324V15.1133ZM19.5234 15.1133H18.0293V10.6836H19.5234V15.1133ZM21.7266 11.5625H11.9766V10.3613H21.7266V11.5625ZM20.5664 9.21875H13.1191V4.91797H20.5664V9.21875ZM14.5898 8.02344H19.0723V6.10742H14.5898V8.02344ZM26.1738 7.31445C26.1738 8.1543 26.0547 8.95508 25.8164 9.7168C25.582 10.4746 25.2363 11.1484 24.7793 11.7383C24.3223 12.3281 23.7715 12.7734 23.127 13.0742L22.2715 11.8965C22.8457 11.6348 23.334 11.2617 23.7363 10.7773C24.1426 10.293 24.4473 9.75195 24.6504 9.1543C24.8574 8.55273 24.9609 7.93945 24.9609 7.31445V6.07227H26.1738V7.31445ZM26.4844 7.31445C26.4844 7.9082 26.5859 8.48828 26.7891 9.05469C26.9922 9.62109 27.2949 10.1328 27.6973 10.5898C28.0996 11.043 28.5879 11.3887 29.1621 11.627L28.3535 12.7988C27.6934 12.5137 27.1348 12.0938 26.6777 11.5391C26.2207 10.9844 25.877 10.3457 25.6465 9.62305C25.4199 8.89648 25.3066 8.12695 25.3066 7.31445V6.07227H26.4844V7.31445ZM28.7227 6.66406H22.6992V5.44531H28.7227V6.66406ZM31.2832 15.0781H29.7656V4.40234H31.2832V15.0781ZM40.4473 7.91211H38.3438V6.70508H40.4473V7.91211ZM38.3203 4.86523C38.3203 5.83398 38.1504 6.66797 37.8105 7.36719C37.4746 8.06641 36.9512 8.65234 36.2402 9.125C35.5293 9.59766 34.6016 9.96875 33.457 10.2383L32.9238 9.0957C33.877 8.88867 34.6348 8.61719 35.1973 8.28125C35.7598 7.94531 36.1582 7.55664 36.3926 7.11523C36.6309 6.67383 36.75 6.17383 36.75 5.61523V4.86523H38.3203ZM37.8281 6.02539H33.5156V4.86523H37.8281V6.02539ZM33.1816 7.91211L32.9707 6.79297L37.0371 6.65234V7.63672L33.1816 7.91211ZM41.7129 9.80469H40.2246V4.40234H41.7129V9.80469ZM41.7129 13.0977H36.1113V14.4395H34.6406V12.0195H40.2305V11.3574H34.623V10.209H41.7129V13.0977ZM41.9473 14.9609H34.6406V13.7832H41.9473V14.9609Z" fill="white"/>
</svg>
