<svg width="47" height="20" viewBox="0 0 47 20" fill="none" xmlns="http://www.w3.org/2000/svg">
<rect width="47" height="20" rx="10" fill="#EBCB3D"/>
<path d="M21.4785 7.11523H18.3145V5.91406H21.4785V7.11523ZM21.4785 9.69336H18.3145V8.49805H21.4785V9.69336ZM22.4336 12.2246H20.9453V4.42578H22.4336V12.2246ZM22.6914 14.8965H15.3555V13.6895H22.6914V14.8965ZM16.8555 14.3047H15.3555V11.4336H16.8555V14.3047ZM16.4219 5.04102C16.9414 5.04102 17.4141 5.16211 17.8398 5.4043C18.2695 5.64258 18.6113 5.97266 18.8652 6.39453C19.1191 6.8125 19.2461 7.28516 19.2461 7.8125C19.2461 8.33203 19.1191 8.80078 18.8652 9.21875C18.6113 9.63672 18.2695 9.9668 17.8398 10.209C17.4102 10.4473 16.9375 10.5664 16.4219 10.5664C15.8867 10.5664 15.4023 10.4473 14.9688 10.209C14.5391 9.9668 14.1992 9.63672 13.9492 9.21875C13.7031 8.80078 13.5801 8.33203 13.5801 7.8125C13.5801 7.28516 13.7031 6.81055 13.9492 6.38867C14.1992 5.9668 14.5391 5.63672 14.9688 5.39844C15.4023 5.16016 15.8867 5.04102 16.4219 5.04102ZM16.4219 6.37109C16.1445 6.36719 15.8984 6.42383 15.6836 6.54102C15.4688 6.6543 15.3008 6.82031 15.1797 7.03906C15.0586 7.25781 14.998 7.51562 14.998 7.8125C14.998 8.10156 15.0586 8.35352 15.1797 8.56836C15.3008 8.7832 15.4688 8.94922 15.6836 9.06641C15.8984 9.17969 16.1445 9.23828 16.4219 9.24219C16.6836 9.23828 16.9199 9.17969 17.1309 9.06641C17.3457 8.94922 17.5137 8.7832 17.6348 8.56836C17.7559 8.35352 17.8164 8.10156 17.8164 7.8125C17.8164 7.51562 17.7559 7.25781 17.6348 7.03906C17.5137 6.82031 17.3457 6.6543 17.1309 6.54102C16.9199 6.42383 16.6836 6.36719 16.4219 6.37109ZM31.832 6.06641H25.0117V4.88281H31.832V6.06641ZM33.5723 9.94531H23.8223V8.75586H33.5723V9.94531ZM32.418 5.63281C32.418 6.25 32.4004 6.82617 32.3652 7.36133C32.334 7.89648 32.2539 8.50586 32.125 9.18945L30.6426 9.06641C30.7324 8.59766 30.7969 8.16016 30.8359 7.75391C30.8789 7.34766 30.9043 7 30.9121 6.71094C30.9199 6.41797 30.9258 6.05859 30.9297 5.63281V4.88281H32.418V5.63281ZM32.4473 15.084H30.9531V12.377H24.8418V11.1934H32.4473V15.084Z" fill="white"/>
</svg>
