<svg width="80" height="20" viewBox="0 0 80 20" fill="none" xmlns="http://www.w3.org/2000/svg">
<rect width="80" height="20" rx="10" fill="#F28C50"/>
<path d="M18.2715 6.23633H12.5234V5.06445H18.2715V6.23633ZM12.2363 8.89648C13.4473 8.89648 14.5859 8.87695 15.6523 8.83789C16.7227 8.79883 17.7207 8.72461 18.6465 8.61523L18.7578 9.72266C17.8125 9.875 16.8066 9.98047 15.7402 10.0391C14.6777 10.0938 13.5625 10.1211 12.3945 10.1211L12.2363 8.89648ZM14.8379 9.44727H13.3906V5.89062H14.8379V9.44727ZM17.3984 9.44727H15.9688V5.89062H17.3984V9.44727ZM20.7559 10.3496H19.2617V4.40234H20.7559V10.3496ZM22.1973 7.94727H20.334V6.70508H22.1973V7.94727ZM15.2422 11.6855H19.2617V10.7422H20.7559V14.9609H13.7539V10.7422H15.2422V11.6855ZM19.2617 13.7598V12.8398H15.2422V13.7598H19.2617ZM30.7988 7.97656H28.1035V6.78125H30.7988V7.97656ZM25.6426 4.86523C26.166 4.86133 26.6426 4.96875 27.0723 5.1875C27.502 5.40234 27.8418 5.70312 28.0918 6.08984C28.3418 6.47656 28.4668 6.91016 28.4668 7.39062C28.4668 7.87891 28.3418 8.31836 28.0918 8.70898C27.8418 9.0957 27.502 9.39844 27.0723 9.61719C26.6465 9.83594 26.1699 9.94531 25.6426 9.94531C25.0996 9.94531 24.6113 9.83594 24.1777 9.61719C23.748 9.39844 23.4102 9.0957 23.1641 8.70898C22.9219 8.31836 22.8008 7.87891 22.8008 7.39062C22.8008 6.91016 22.9219 6.47656 23.1641 6.08984C23.4102 5.70312 23.75 5.40234 24.1836 5.1875C24.6172 4.96875 25.1035 4.86133 25.6426 4.86523ZM25.6426 6.11328C25.3652 6.10938 25.1191 6.1582 24.9043 6.25977C24.6895 6.36133 24.5215 6.50977 24.4004 6.70508C24.2793 6.89648 24.2188 7.125 24.2188 7.39062C24.2188 7.65234 24.2793 7.88281 24.4004 8.08203C24.5215 8.27734 24.6895 8.42969 24.9043 8.53906C25.1191 8.64453 25.3652 8.69727 25.6426 8.69727C25.916 8.69727 26.1582 8.64453 26.3691 8.53906C26.5801 8.42969 26.7441 8.27734 26.8613 8.08203C26.9785 7.88281 27.0371 7.65234 27.0371 7.39062C27.0371 7.12891 26.9785 6.90039 26.8613 6.70508C26.7441 6.50977 26.5801 6.36133 26.3691 6.25977C26.1582 6.1582 25.916 6.10938 25.6426 6.11328ZM31.6543 10.1504H30.166V4.40234H31.6543V10.1504ZM26.0176 11.6387H30.166V10.6133H31.6543V14.9609H24.541V10.6133H26.0176V11.6387ZM30.166 13.7539V12.793H26.0176V13.7539H30.166ZM41.1465 5.81445C41.1465 6.58789 40.9648 7.3125 40.6016 7.98828C40.2383 8.66406 39.7207 9.24219 39.0488 9.72266C38.3809 10.1992 37.5977 10.5273 36.6992 10.707L36.0605 9.46484C36.8262 9.32031 37.4941 9.06055 38.0645 8.68555C38.6387 8.31055 39.0762 7.87109 39.377 7.36719C39.6816 6.86328 39.834 6.3457 39.834 5.81445V5.05273H41.1465V5.81445ZM41.4219 5.81445C41.4219 6.34961 41.5723 6.87109 41.873 7.37891C42.1777 7.88672 42.6172 8.32812 43.1914 8.70312C43.7695 9.07422 44.4453 9.32812 45.2188 9.46484L44.5625 10.707C43.6719 10.5273 42.8906 10.2012 42.2188 9.72852C41.5508 9.25586 41.0371 8.68164 40.6777 8.00586C40.3184 7.33008 40.1387 6.59961 40.1387 5.81445V5.05273H41.4219V5.81445ZM45.5703 13.7715H35.8203V12.5469H45.5703V13.7715ZM54.8809 10.8887H47.334V9.70508H54.8809V10.8887ZM55.9414 13.8887H46.1914V12.6934H55.9414V13.8887ZM51.8047 13.209H50.3105V10.291H51.8047V13.209ZM54.7988 6.34766H48.8574V10.168H47.334V5.14648H54.7988V6.34766ZM54.5469 8.5918H48.4121V7.41992H54.5469V8.5918ZM59.498 5.1582C60.0293 5.1582 60.5039 5.31445 60.9219 5.62695C61.3398 5.93945 61.666 6.38281 61.9004 6.95703C62.1387 7.53125 62.2578 8.19922 62.2578 8.96094C62.2578 9.72656 62.1387 10.3965 61.9004 10.9707C61.666 11.5449 61.3398 11.9883 60.9219 12.3008C60.5039 12.6094 60.0293 12.7637 59.498 12.7637C58.9629 12.7637 58.4844 12.6094 58.0625 12.3008C57.6445 11.9922 57.3164 11.5508 57.0781 10.9766C56.8398 10.3984 56.7207 9.72656 56.7207 8.96094C56.7207 8.19922 56.8398 7.53125 57.0781 6.95703C57.3164 6.38281 57.6445 5.93945 58.0625 5.62695C58.4844 5.31445 58.9629 5.1582 59.498 5.1582ZM59.498 6.51172C59.2324 6.50781 58.9961 6.60156 58.7891 6.79297C58.5859 6.98438 58.4297 7.26367 58.3203 7.63086C58.2148 7.99805 58.1621 8.44141 58.1621 8.96094C58.1621 9.48047 58.2148 9.92383 58.3203 10.291C58.4297 10.6582 58.5859 10.9375 58.7891 11.1289C58.9961 11.3164 59.2324 11.4102 59.498 11.4102C59.7676 11.4102 60.0039 11.3164 60.207 11.1289C60.4102 10.9375 60.5664 10.6582 60.6758 10.291C60.7852 9.92383 60.8398 9.48047 60.8398 8.96094C60.8398 8.4375 60.7832 7.99219 60.6699 7.625C60.5605 7.25781 60.4062 6.98047 60.207 6.79297C60.0078 6.60156 59.7715 6.50781 59.498 6.51172ZM65.5566 15.1074H64.0742V4.40234H65.5566V15.1074ZM64.7129 9.46484H61.8125V8.26367H64.7129V9.46484Z" fill="white"/>
</svg>
