<svg width="25" height="25" viewBox="0 0 25 25" fill="none" xmlns="http://www.w3.org/2000/svg">
<g id="settings 3">
<path id="Vector" d="M12.4119 2.5H11.9719C11.4415 2.5 10.9328 2.71071 10.5577 3.08579C10.1826 3.46086 9.9719 3.96957 9.9719 4.5V4.68C9.97154 5.03073 9.87895 5.37519 9.70343 5.67884C9.52792 5.98248 9.27563 6.23464 8.9719 6.41L8.5419 6.66C8.23786 6.83554 7.89297 6.92795 7.5419 6.92795C7.19082 6.92795 6.84593 6.83554 6.5419 6.66L6.3919 6.58C5.93296 6.31526 5.38773 6.24344 4.8759 6.38031C4.36406 6.51717 3.92745 6.85154 3.6619 7.31L3.4419 7.69C3.17716 8.14893 3.10534 8.69416 3.2422 9.206C3.37907 9.71783 3.71343 10.1544 4.1719 10.42L4.3219 10.52C4.62417 10.6945 4.87552 10.9451 5.05095 11.2468C5.22638 11.5486 5.31979 11.891 5.3219 12.24V12.75C5.3233 13.1024 5.23155 13.449 5.05594 13.7545C4.88033 14.0601 4.62711 14.3138 4.3219 14.49L4.1719 14.58C3.71343 14.8456 3.37907 15.2822 3.2422 15.794C3.10534 16.3058 3.17716 16.8511 3.4419 17.31L3.6619 17.69C3.92745 18.1485 4.36406 18.4828 4.8759 18.6197C5.38773 18.7566 5.93296 18.6847 6.3919 18.42L6.5419 18.34C6.84593 18.1645 7.19082 18.0721 7.5419 18.0721C7.89297 18.0721 8.23786 18.1645 8.5419 18.34L8.9719 18.59C9.27563 18.7654 9.52792 19.0175 9.70343 19.3212C9.87895 19.6248 9.97154 19.9693 9.9719 20.32V20.5C9.9719 21.0304 10.1826 21.5391 10.5577 21.9142C10.9328 22.2893 11.4415 22.5 11.9719 22.5H12.4119C12.9423 22.5 13.451 22.2893 13.8261 21.9142C14.2012 21.5391 14.4119 21.0304 14.4119 20.5V20.32C14.4123 19.9693 14.5048 19.6248 14.6804 19.3212C14.8559 19.0175 15.1082 18.7654 15.4119 18.59L15.8419 18.34C16.1459 18.1645 16.4908 18.0721 16.8419 18.0721C17.193 18.0721 17.5379 18.1645 17.8419 18.34L17.9919 18.42C18.4508 18.6847 18.9961 18.7566 19.5079 18.6197C20.0197 18.4828 20.4563 18.1485 20.7219 17.69L20.9419 17.3C21.2066 16.8411 21.2785 16.2958 21.1416 15.784C21.0047 15.2722 20.6704 14.8356 20.2119 14.57L20.0619 14.49C19.7567 14.3138 19.5035 14.0601 19.3279 13.7545C19.1522 13.449 19.0605 13.1024 19.0619 12.75V12.25C19.0605 11.8976 19.1522 11.551 19.3279 11.2455C19.5035 10.9399 19.7567 10.6862 20.0619 10.51L20.2119 10.42C20.6704 10.1544 21.0047 9.71783 21.1416 9.206C21.2785 8.69416 21.2066 8.14893 20.9419 7.69L20.7219 7.31C20.4563 6.85154 20.0197 6.51717 19.5079 6.38031C18.9961 6.24344 18.4508 6.31526 17.9919 6.58L17.8419 6.66C17.5379 6.83554 17.193 6.92795 16.8419 6.92795C16.4908 6.92795 16.1459 6.83554 15.8419 6.66L15.4119 6.41C15.1082 6.23464 14.8559 5.98248 14.6804 5.67884C14.5048 5.37519 14.4123 5.03073 14.4119 4.68V4.5C14.4119 3.96957 14.2012 3.46086 13.8261 3.08579C13.451 2.71071 12.9423 2.5 12.4119 2.5Z" stroke="#33363D" stroke-linecap="round" stroke-linejoin="round"/>
<path id="Vector_2" d="M12.1919 15.5C13.8487 15.5 15.1919 14.1569 15.1919 12.5C15.1919 10.8431 13.8487 9.5 12.1919 9.5C10.535 9.5 9.19189 10.8431 9.19189 12.5C9.19189 14.1569 10.535 15.5 12.1919 15.5Z" stroke="#33363D" stroke-linecap="round" stroke-linejoin="round"/>
</g>
</svg>
